<svg width="24" height="24" viewBox="0 0 24 24" fill="none" xmlns="http://www.w3.org/2000/svg">
<g clip-path="url(#clip0_355:47)">
<path d="M19 1H5C2.239 1 0 3.239 0 6V20C0 22.761 2.239 25 5 25H19C21.762 25 24 22.761 24 20V6C24 3.239 21.762 1 19 1ZM8 20H5V9H8V20ZM6.5 7.732C5.534 7.732 4.75 6.942 4.75 5.968C4.75 4.994 5.534 4.204 6.5 4.204C7.466 4.204 8.25 4.994 8.25 5.968C8.25 6.942 7.467 7.732 6.5 7.732ZM20 20H17V14.396C17 11.028 13 11.283 13 14.396V20H10V9H13V10.765C14.396 8.179 20 7.988 20 13.241V20Z" fill="black"/>
</g>
<defs>
<clipPath id="clip0_355:47">
<rect width="24" height="24" fill="white"/>
</clipPath>
</defs>
</svg>
